<svg width="28" height="29" viewBox="0 0 28 29" fill="none" xmlns="http://www.w3.org/2000/svg">
<g clipPath="url(#clip0_34_32)">
<path fillRule="evenodd" clip-rule="evenodd" d="M17.6857 8.74585C16.5476 7.98543 15.2096 7.57955 13.8409 7.57955V0.659091C16.5784 0.659091 19.2544 1.47085 21.5305 2.99171C23.8066 4.51256 25.5806 6.67422 26.6282 9.20329C27.6758 11.7324 27.9499 14.5154 27.4159 17.2002C26.8818 19.8851 25.5636 22.3513 23.6279 24.287C21.6922 26.2227 19.226 27.5409 16.5411 28.075C13.8563 28.609 11.0733 28.3349 8.5442 27.2873C6.01513 26.2397 3.85347 24.4657 2.33262 22.1896C0.811756 19.9135 0 17.2375 0 14.5H6.92045C6.92045 15.8687 7.32634 17.2067 8.08676 18.3448C8.84718 19.4829 9.92802 20.3699 11.1926 20.8937C12.4571 21.4175 13.8486 21.5545 15.191 21.2874C16.5334 21.0205 17.7665 20.3613 18.7344 19.3935C19.7023 18.4256 20.3614 17.1925 20.6284 15.8501C20.8954 14.5077 20.7584 13.1162 20.2346 11.8517C19.7108 10.5871 18.8238 9.50627 17.6857 8.74585Z" fill="#E34136"/>
<path fillRule="evenodd" clip-rule="evenodd" d="M6.92045 0.659094C6.92045 1.5679 6.74145 2.46781 6.39367 3.30743C6.04588 4.14706 5.53612 4.90997 4.8935 5.5526C4.25088 6.19522 3.48797 6.70498 2.64834 7.05276C1.80871 7.40054 0.908804 7.57955 3.025e-07 7.57955L0 14.5C1.81761 14.5 3.61743 14.142 5.29669 13.4464C6.97595 12.7509 8.50178 11.7313 9.78697 10.4461C11.0722 9.16087 12.0918 7.63505 12.7873 5.95578C13.4829 4.27652 13.8409 2.4767 13.8409 0.659091L6.92045 0.659094Z" fill="#E34136"/>
</g>
<defs>
<clipPath id="clip0_34_32">
<rect width="27.6818" height="27.6818" fill="white" transform="translate(0 0.659091)"/>
</clipPath>
</defs>
</svg>
